<?xml version="1.0" encoding="UTF-8" standalone="no"?>
<svg width="189px" height="14px" viewBox="0 0 189 14" version="1.1" xmlns="http://www.w3.org/2000/svg" xmlns:xlink="http://www.w3.org/1999/xlink">
    <!-- Generator: Sketch 3.6.1 (26313) - http://www.bohemiancoding.com/sketch -->
    <title>Wordmark</title>
    <desc>Created with Sketch.</desc>
    <defs></defs>
    <g id="High-Fidelity" stroke="none" stroke-width="1" fill="none" fill-rule="evenodd">
        <g id="Icons" transform="translate(-191.000000, -389.000000)" fill="#2D2E2B">
            <g id="Wordmark" transform="translate(191.000000, 389.000000)">
                <g id="Group-4" transform="translate(117.279236, 0.000000)">
                    <path d="M13.3648711,0.774516129 C13.2318043,0.860322581 13.0969332,0.989032258 12.9620621,1.15974194 C12.8231313,1.33090323 12.6990859,1.53774194 12.59579,1.78116129 C12.4915919,2.02458065 12.4379141,2.31722581 12.4379141,2.65774194 L12.4379141,11.4357419 C12.4379141,11.7771613 12.4915919,12.0702581 12.59579,12.311871 C12.6990859,12.5561935 12.8231313,12.7594194 12.9620621,12.9229032 C13.0969332,13.0881935 13.2318043,13.2173548 13.3648711,13.308129 C13.4961337,13.4002581 13.5931146,13.4603226 13.6589714,13.4869677 L13.6589714,13.7231613 L8.18293317,13.7231613 L8.18293317,13.4869677 C8.24878998,13.4603226 8.34622196,13.4002581 8.47793556,13.308129 C8.61055131,13.2173548 8.74406921,13.0881935 8.88254893,12.9229032 C9.02057757,12.7594194 9.14326969,12.5561935 9.24701671,12.311871 C9.35166587,12.0702581 9.40399045,11.7771613 9.40399045,11.4357419 L9.40399045,7.63903226 L4.47961575,7.63903226 L4.47961575,11.4357419 C4.47961575,11.7771613 4.53239141,12.0702581 4.63794272,12.311871 C4.74349403,12.5561935 4.86393079,12.7594194 5.00150835,12.9229032 C5.13908592,13.0881935 5.27711456,13.2173548 5.41559427,13.308129 C5.55272076,13.4002581 5.65601671,13.4603226 5.72142243,13.4869677 L5.72142243,13.7231613 L0.226439141,13.7231613 L0.226439141,13.4869677 C0.290942721,13.4603226 0.392885442,13.4002581 0.530463007,13.308129 C0.667589499,13.2173548 0.805618138,13.0881935 0.943195704,12.9229032 C1.08257757,12.7594194 1.20256325,12.5561935 1.30811456,12.311871 C1.41366587,12.0702581 1.4668926,11.7771613 1.4668926,11.4357419 L1.4668926,2.65774194 C1.4668926,2.31722581 1.41366587,2.02458065 1.30811456,1.78116129 C1.20256325,1.53774194 1.08257757,1.33090323 0.943195704,1.15974194 C0.805618138,0.989032258 0.667589499,0.860322581 0.530463007,0.774516129 C0.392885442,0.690064516 0.290942721,0.634516129 0.226439141,0.606967742 L0.226439141,0.371225806 L5.72142243,0.371225806 L5.72142243,0.606967742 C5.65601671,0.634516129 5.55272076,0.690064516 5.41559427,0.774516129 C5.27711456,0.860322581 5.13908592,0.989032258 5.00150835,1.15974194 C4.86393079,1.33090323 4.74349403,1.53774194 4.63794272,1.78116129 C4.53239141,2.02458065 4.47961575,2.31722581 4.47961575,2.65774194 L4.47961575,6.39393548 L9.40399045,6.39393548 L9.40399045,2.65774194 C9.40399045,2.31722581 9.35166587,2.02458065 9.24701671,1.78116129 C9.14326969,1.53774194 9.02057757,1.33090323 8.88254893,1.15974194 C8.74406921,0.989032258 8.61055131,0.860322581 8.47793556,0.774516129 C8.34622196,0.690064516 8.24878998,0.634516129 8.18293317,0.606967742 L8.18293317,0.371225806 L13.6589714,0.371225806 L13.6589714,0.606967742 C13.5931146,0.634516129 13.4961337,0.690064516 13.3648711,0.774516129" id="Fill-1"></path>
                    <path d="M32.3338854,7.03658065 C32.3338854,7.90593548 32.2084869,8.75270968 31.9585919,9.58096774 C31.7100501,10.410129 31.3248329,11.152129 30.8088043,11.810129 C30.2878138,12.468129 29.6211265,12.9965161 28.8078401,13.3975484 C27.9922983,13.7990323 27.0215871,14 25.893,14 C24.7621575,14 23.7950549,13.7990323 22.9858282,13.3975484 C22.1775036,12.9965161 21.5121695,12.468129 20.9862172,11.810129 C20.4616181,11.152129 20.0786563,10.410129 19.8341742,9.58096774 C19.5919475,8.75270968 19.4706086,7.90593548 19.4706086,7.03658065 C19.4706086,6.18348387 19.5919475,5.33716129 19.8341742,4.50212903 C20.0786563,3.668 20.4616181,2.92419355 20.9862172,2.27387097 C21.5121695,1.62219355 22.1775036,1.09741935 22.9858282,0.696387097 C23.7950549,0.295806452 24.7621575,0.0952903226 25.893,0.0952903226 C27.0215871,0.0952903226 27.9922983,0.295806452 28.8078401,0.696387097 C29.6211265,1.09741935 30.2878138,1.62219355 30.8088043,2.27387097 C31.3248329,2.92419355 31.7100501,3.668 31.9585919,4.50212903 C32.2084869,5.33716129 32.3338854,6.18348387 32.3338854,7.03658065 M28.4334487,3.88703226 C28.4334487,3.28367742 28.337821,2.79322581 28.1479189,2.41748387 C27.9571146,2.044 27.7275179,1.75406452 27.4582267,1.55129032 C27.1880334,1.34716129 26.9083675,1.21303226 26.6223866,1.14483871 C26.331895,1.08025806 26.0910215,1.04819355 25.893,1.04819355 C25.6945274,1.04819355 25.4513986,1.08025806 25.1631623,1.14483871 C24.8744749,1.21303226 24.5966134,1.34716129 24.32642,1.55129032 C24.0562267,1.75406452 23.8275322,2.044 23.6362768,2.41748387 C23.4459236,2.79322581 23.350747,3.28367742 23.350747,3.88703226 L23.350747,10.2078065 C23.350747,10.8251613 23.4459236,11.3183226 23.6362768,11.6850323 C23.8275322,12.0544516 24.0562267,12.3367097 24.32642,12.5340645 C24.5966134,12.7309677 24.8744749,12.8632903 25.1631623,12.9283226 C25.4513986,12.9933548 25.6945274,13.0272258 25.893,13.0272258 C26.0910215,13.0272258 26.331895,12.9933548 26.6223866,12.9283226 C26.9083675,12.8632903 27.1880334,12.7309677 27.4582267,12.5340645 C27.7275179,12.3367097 27.9571146,12.0544516 28.1479189,11.6850323 C28.337821,11.3183226 28.4334487,10.8251613 28.4334487,10.2078065 L28.4334487,3.88703226" id="Fill-3"></path>
                </g>
                <path d="M170.912835,1.52509677 C170.681434,1.91258065 170.567313,2.338 170.567313,2.79729032 L170.567313,11.3156129 C170.567313,11.7771613 170.681434,12.1976129 170.912835,12.5787742 C171.141079,12.9608387 171.43969,13.2643226 171.80957,13.4869677 L171.80957,13.7425806 L166.311881,13.7425806 L166.311881,13.4869677 C166.69394,13.2643226 166.995258,12.9608387 167.218539,12.5787742 C167.441821,12.1976129 167.553687,11.7771613 167.553687,11.3156129 L167.553687,3.68109677 L162.725842,12.1619355 L162.491735,12.1619355 L157.979642,3.54606452 L157.979642,11.3156129 C157.979642,11.7771613 158.092411,12.1976129 158.31479,12.5787742 C158.538523,12.9608387 158.83984,13.2643226 159.220998,13.4869677 L159.220998,13.7425806 L155.201928,13.7425806 L155.201928,13.4869677 C155.571358,13.2643226 155.869067,12.9608387 156.100017,12.5787742 C156.328711,12.1976129 156.442833,11.7771613 156.442833,11.3156129 L156.442833,2.79729032 C156.442833,2.338 156.328711,1.91258065 156.100017,1.52509677 C155.869067,1.13716129 155.571358,0.831870968 155.201928,0.606967742 L155.201928,0.371225806 L159.359477,0.371225806 L163.3172,7.82645161 L167.493695,0.371225806 L171.80957,0.371225806 L171.80957,0.606967742 C171.43969,0.831870968 171.141079,1.13716129 170.912835,1.52509677" id="Fill-5"></path>
                <path d="M188.777169,0.371225806 L188.777169,4.70083871 L188.205208,4.70083871 C188.166415,4.58251613 188.079809,4.34316129 187.948095,3.98187097 C187.818186,3.61922581 187.587687,3.24574194 187.260208,2.85780645 C186.931375,2.47077419 186.475339,2.12845161 185.890747,1.83219355 C185.306155,1.53683871 184.535721,1.38735484 183.576286,1.38735484 L181.606446,1.38735484 L181.606446,6.42554839 L183.004776,6.42554839 C183.227606,6.42554839 183.446377,6.38264516 183.654773,6.29819355 C183.865425,6.2123871 184.059387,6.09406452 184.235757,5.94141935 C184.413931,5.79058065 184.568649,5.62077419 184.699461,5.42929032 C184.831174,5.2396129 184.922742,5.04406452 184.974616,4.84941935 L185.565974,4.84941935 L185.565974,9.16593548 L184.974616,9.16593548 C184.922742,8.96993548 184.831174,8.77574194 184.699461,8.58606452 C184.568649,8.39458065 184.413931,8.22296774 184.235757,8.07348387 C184.059387,7.92129032 183.865425,7.80296774 183.654773,7.71716129 C183.446377,7.63270968 183.227606,7.58935484 183.004776,7.58935484 L181.606446,7.58935484 L181.606446,12.7043226 L183.576286,12.7043226 C184.535721,12.7043226 185.306155,12.558 185.890747,12.2626452 C186.475339,11.9659355 186.931375,11.6249677 187.260208,11.2365806 C187.587687,10.8490968 187.818186,10.4742581 187.948095,10.1129677 C188.079809,9.75122581 188.166415,9.51051613 188.205208,9.39219355 L188.777169,9.39219355 L188.777169,13.7222581 L177.351465,13.7222581 L177.351465,13.4869677 C177.418224,13.4603226 177.519716,13.4020645 177.656391,13.308129 C177.795322,13.216 177.9329,13.0881935 178.070928,12.9242581 C178.209408,12.7594194 178.329394,12.5552903 178.435396,12.3132258 C178.540947,12.0702581 178.592821,11.7758065 178.592821,11.4357419 L178.592821,2.65909677 C178.592821,2.31722581 178.540947,2.02593548 178.435396,1.78116129 C178.329394,1.53774194 178.209408,1.33090323 178.070928,1.15974194 C177.9329,0.989032258 177.795322,0.861677419 177.656391,0.774516129 C177.519716,0.690064516 177.418224,0.634967742 177.351465,0.607870968 L177.351465,0.371225806 L188.777169,0.371225806" id="Fill-6"></path>
                <path d="M23.4761456,11.6511613 L26.3251289,2.38225806 C26.4221098,2.04129032 26.447821,1.764 26.3968496,1.55354839 C26.3467804,1.34445161 26.2606253,1.17419355 26.1343246,1.04096774 C26.0071217,0.911354839 25.8713484,0.81516129 25.722043,0.755096774 C25.5763461,0.696387097 25.4667351,0.653483871 25.3954654,0.627290323 L25.3954654,0.371225806 L30.8895465,0.371225806 L34.9189905,11.5536129 C35.0728067,11.9867097 35.2960883,12.367871 35.5825203,12.6966452 C35.8716587,13.0263226 36.2063556,13.2887097 36.5843556,13.4851613 L36.5843556,13.7231613 L30.3324702,13.7231613 L30.3324702,13.5059355 C30.8101575,13.2692903 31.1439523,12.944129 31.3352076,12.5290968 C31.5242076,12.115871 31.514284,11.6204516 31.3040835,11.040129 L31.1552291,10.6580645 L25.5131957,10.6580645 L25.3643413,11.040129 C25.1541408,11.7500645 25.1455704,12.2811613 25.3431408,12.6275484 C25.5389069,12.9766452 25.8776635,13.2692903 26.3558019,13.5059355 L26.3558019,13.7231613 L21.832432,13.7231613 L21.832432,13.4851613 C22.2122363,13.2887097 22.5415203,13.0389677 22.8225394,12.7359355 C23.1035585,12.4329032 23.3205251,12.0729677 23.4761456,11.6511613 M30.7564797,9.5023871 L28.0522912,2.044 L27.9954558,2.04445161 L25.850148,9.5023871 L30.7564797,9.5023871" id="Fill-7"></path>
                <path d="M41.5042196,13.4869677 C41.5691742,13.4589677 41.6706659,13.4002581 41.8091456,13.3094839 C41.9485274,13.2173548 42.086105,13.0881935 42.2232315,12.9242581 C42.3617112,12.7594194 42.482599,12.5561935 42.5876993,12.3132258 C42.6923484,12.0689032 42.7464773,11.7771613 42.7464773,11.4357419 L42.7464773,2.65909677 C42.7464773,2.31722581 42.6923484,2.02458065 42.5876993,1.78116129 C42.482599,1.53909677 42.3617112,1.33090323 42.2232315,1.16109677 C42.086105,0.989032258 41.9485274,0.860322581 41.8091456,0.775870968 C41.6706659,0.690064516 41.5691742,0.634516129 41.5042196,0.607870968 L41.5042196,0.371225806 L47.0014582,0.371225806 L47.0014582,0.607870968 C46.9342482,0.634516129 46.8327566,0.690064516 46.695179,0.775870968 C46.5576014,0.860322581 46.4200239,0.989032258 46.2819952,1.16109677 C46.1430644,1.33090323 46.0221766,1.53909677 45.9170764,1.78116129 C45.8124272,2.02458065 45.7596516,2.31722581 45.7596516,2.65909677 L45.7596516,11.4357419 C45.7596516,11.7771613 45.8124272,12.0689032 45.9170764,12.3132258 C46.0221766,12.5561935 46.1430644,12.7594194 46.2819952,12.9242581 C46.4200239,13.0881935 46.5576014,13.2173548 46.695179,13.3094839 C46.8327566,13.4002581 46.9342482,13.4589677 47.0014582,13.4869677 L47.0014582,13.7231613 L41.5042196,13.7231613 L41.5042196,13.4869677" id="Fill-8"></path>
                <path d="M63.0186444,0.952903226 C63.826969,1.3403871 64.491852,1.84619355 65.0178043,2.47167742 C65.5442076,3.09625806 65.9271695,3.80619355 66.1698473,4.6023871 C66.4129761,5.39677419 66.533864,6.20832258 66.533864,7.03658065 C66.533864,7.86529032 66.4129761,8.68090323 66.1698473,9.48296774 C65.9271695,10.2845806 65.5442076,10.9985806 65.0178043,11.6227097 C64.491852,12.2463871 63.826969,12.7530968 63.0186444,13.1405806 C62.2107709,13.5294194 61.2414129,13.7222581 60.114179,13.7222581 L53.3742315,13.7222581 L53.3742315,13.4869677 C53.4418926,13.4603226 53.5433842,13.4020645 53.6809618,13.308129 C53.8189905,13.216 53.956568,13.0881935 54.0941456,12.9229032 C54.2330764,12.7594194 54.3544153,12.5552903 54.4604177,12.3132258 C54.5646158,12.0702581 54.6164893,11.7758065 54.6164893,11.4357419 L54.6164893,2.65909677 C54.6164893,2.31722581 54.5646158,2.02593548 54.4604177,1.78116129 C54.3544153,1.53774194 54.2330764,1.33090323 54.0941456,1.15974194 C53.956568,0.989032258 53.8189905,0.861677419 53.6809618,0.774516129 C53.5433842,0.690064516 53.4418926,0.634967742 53.3742315,0.607870968 L53.3742315,0.371225806 L60.114179,0.371225806 C61.2414129,0.371225806 62.2107709,0.564967742 63.0186444,0.952903226 M62.6532745,9.83658065 L62.6532745,4.256 C62.6532745,3.65129032 62.5585489,3.16219355 62.3681957,2.78645161 C62.1769403,2.41341935 61.9482458,2.12167742 61.6780525,1.91890323 C61.4105656,1.71477419 61.1299976,1.58064516 60.8417613,1.51470968 C60.5512697,1.44922581 60.3103962,1.41716129 60.114179,1.41716129 L57.6305656,1.41716129 L57.6305656,12.6776774 L60.0929785,12.6776774 C60.2905489,12.6776774 60.5336778,12.6451613 60.8219141,12.5787742 C61.1115036,12.5132903 61.3893652,12.3782581 61.6582053,12.1750323 C61.9283986,11.9713548 62.1611527,11.6850323 62.3587232,11.3169677 C62.5562936,10.9489032 62.6532745,10.4561935 62.6532745,9.83658065" id="Fill-9"></path>
                <path d="M103.650938,0.607870968 C103.270232,0.831870968 102.96711,1.13716129 102.744279,1.52509677 C102.520095,1.91258065 102.40868,2.338 102.40868,2.79729032 L102.40868,13.7412258 L99.5533819,13.7412258 L92.756599,3.78045161 L92.756599,11.3169677 C92.756599,11.7771613 92.8684654,12.1976129 93.091747,12.5787742 C93.3150286,12.9599355 93.6176993,13.2625161 93.9984057,13.4869677 L93.9984057,13.7412258 L89.9797876,13.7412258 L89.9797876,13.4869677 C90.3456086,13.2625161 90.6455728,12.9599355 90.8756205,12.5787742 C91.104315,12.1976129 91.2206921,11.7771613 91.2206921,11.3169677 L91.2206921,2.79729032 C91.2085131,2.338 91.0889785,1.91258065 90.8652458,1.52509677 C90.6415131,1.13716129 90.3456086,0.831870968 89.9797876,0.607870968 L89.9797876,0.370322581 L94.0764415,0.370322581 L100.852475,10.253871 L100.852475,2.79729032 C100.852475,2.338 100.74106,1.91258065 100.517327,1.52509677 C100.294496,1.13716129 99.9999451,0.831870968 99.6314177,0.607870968 L99.6314177,0.370322581 L103.650938,0.370322581 L103.650938,0.607870968" id="Fill-10"></path>
                <path d="M83.5186038,0.371225806 L83.5186038,4.70083871 L82.9470931,4.70083871 C82.9087518,4.58251613 82.8216945,4.34316129 82.6899809,3.98187097 C82.5600716,3.61922581 82.3295728,3.24574194 82.001642,2.85780645 C81.6728091,2.47077419 81.2176754,2.12845161 80.6326325,1.83219355 C80.0480406,1.53683871 79.2771551,1.38735484 78.3181718,1.38735484 L76.3483317,1.38735484 L76.3483317,6.42554839 L77.74621,6.42554839 C77.9699427,6.42554839 78.1878115,6.38264516 78.3966587,6.29819355 C78.6077613,6.2123871 78.800821,6.09406452 78.9771909,5.94141935 C79.1558162,5.79058065 79.3105346,5.62077419 79.4413461,5.42929032 C79.5726086,5.2396129 79.6646277,5.04406452 79.7169523,4.84941935 L80.3074081,4.84941935 L80.3074081,9.16593548 L79.7169523,9.16593548 C79.6646277,8.96993548 79.5726086,8.77574194 79.4413461,8.58606452 C79.3105346,8.39458065 79.1558162,8.22296774 78.9771909,8.07348387 C78.800821,7.92129032 78.6077613,7.80296774 78.3966587,7.71716129 C78.1878115,7.63270968 77.9699427,7.58935484 77.74621,7.58935484 L76.3483317,7.58935484 L76.3483317,12.7043226 L78.3181718,12.7043226 C79.2771551,12.7043226 80.0480406,12.558 80.6326325,12.2626452 C81.2176754,11.9659355 81.6728091,11.6249677 82.001642,11.2365806 C82.3295728,10.8490968 82.5600716,10.4742581 82.6899809,10.1129677 C82.8216945,9.75122581 82.9087518,9.51051613 82.9470931,9.39219355 L83.5186038,9.39219355 L83.5186038,13.7222581 L72.0928998,13.7222581 L72.0928998,13.4869677 C72.1605609,13.4603226 72.2616014,13.4020645 72.3982768,13.308129 C72.5372076,13.216 72.6747852,13.0881935 72.8128138,12.9242581 C72.9517446,12.7594194 73.0708282,12.5552903 73.1772816,12.3132258 C73.2823819,12.0702581 73.3342554,11.7758065 73.3342554,11.4357419 L73.3342554,2.65909677 C73.3342554,2.31722581 73.2823819,2.02593548 73.1772816,1.78116129 C73.0708282,1.53774194 72.9517446,1.33090323 72.8128138,1.15974194 C72.6747852,0.989032258 72.5372076,0.861677419 72.3982768,0.774516129 C72.2616014,0.690064516 72.1605609,0.634967742 72.0928998,0.607870968 L72.0928998,0.371225806 L83.5186038,0.371225806" id="Fill-11"></path>
                <path d="M15.7104558,1.52509677 C15.4790549,1.91258065 15.3653842,2.338 15.3653842,2.79729032 L15.3653842,11.3156129 C15.3653842,11.7771613 15.4790549,12.1976129 15.7104558,12.5787742 C15.9391504,12.9608387 16.2377613,13.2643226 16.6071909,13.4869677 L16.6071909,13.7425806 L11.1099523,13.7425806 L11.1099523,13.4869677 C11.4920119,13.2643226 11.7933294,12.9608387 12.016611,12.5787742 C12.2398926,12.1976129 12.3513079,11.7771613 12.3513079,11.3156129 L12.3513079,3.68109677 L7.52391408,12.1619355 L7.28935561,12.1619355 L2.7777136,3.54606452 L2.7777136,11.3156129 C2.7777136,11.7771613 2.8904821,12.1976129 3.1124105,12.5787742 C3.3361432,12.9608387 3.63700955,13.2643226 4.01906921,13.4869677 L4.01906921,13.7425806 L0,13.7425806 L0,13.4869677 C0.36897852,13.2643226 0.666687351,12.9608387 0.897637232,12.5787742 C1.12633174,12.1976129 1.24090453,11.7771613 1.24090453,11.3156129 L1.24090453,2.79729032 C1.24090453,2.338 1.12633174,1.91258065 0.897637232,1.52509677 C0.666687351,1.13716129 0.36897852,0.831870968 0,0.606967742 L0,0.371225806 L4.15754893,0.371225806 L8.11527208,7.82645161 L12.2917661,0.371225806 L16.6071909,0.371225806 L16.6071909,0.606967742 C16.2377613,0.831870968 15.9391504,1.13716129 15.7104558,1.52509677" id="Fill-12"></path>
            </g>
        </g>
    </g>
</svg>